<svg xmlns="http://www.w3.org/2000/svg" width="14.855" height="14.857" viewBox="0 0 14.855 14.857">
  <path id="list-icon" d="M7.184,14.364a7.182,7.182,0,1,1,7.179-7.172A7.188,7.188,0,0,1,7.184,14.364ZM3.235,7a.774.774,0,0,0,.222.519c.618.717,1.232,1.437,1.85,2.154a.8.8,0,0,0,1.175.091c.3-.265.6-.541.9-.813q1.746-1.589,3.491-3.179A.8.8,0,1,0,9.747,4.629Q7.957,6.261,6.169,7.9c-.123.113-.193.113-.3-.019-.418-.5-.842-.993-1.277-1.477a.75.75,0,0,0-.9-.16A.769.769,0,0,0,3.235,7Z" transform="translate(0 0.501) rotate(-2)" fill="#00a4b6"/>
</svg>
